<?xml version="1.0" encoding="UTF-8" standalone="no"?>
<svg
   xmlns:dc="http://purl.org/dc/elements/1.1/"
   xmlns:cc="http://creativecommons.org/ns#"
   xmlns:rdf="http://www.w3.org/1999/02/22-rdf-syntax-ns#"
   xmlns:svg="http://www.w3.org/2000/svg"
   xmlns="http://www.w3.org/2000/svg"
   xmlns:sodipodi="http://sodipodi.sourceforge.net/DTD/sodipodi-0.dtd"
   xmlns:inkscape="http://www.inkscape.org/namespaces/inkscape"
   style="enable-background:new"
   id="svg8"
   version="1.1"
   viewBox="0 0 33.866666 33.866666"
   height="128"
   width="128"
   sodipodi:docname="logo2.svg"
   inkscape:export-filename="C:\xampp\htdocs\skiti\img\logo2.png"
   inkscape:export-xdpi="192"
   inkscape:export-ydpi="192"
   inkscape:version="0.92.3 (2405546, 2018-03-11)">
  <sodipodi:namedview
     pagecolor="#ffffff"
     bordercolor="#666666"
     borderopacity="1"
     objecttolerance="10"
     gridtolerance="10"
     guidetolerance="10"
     inkscape:pageopacity="0"
     inkscape:pageshadow="2"
     inkscape:window-width="1366"
     inkscape:window-height="705"
     id="namedview3723"
     showgrid="false"
     inkscape:zoom="4.203125"
     inkscape:cx="25.33829"
     inkscape:cy="64"
     inkscape:window-x="-8"
     inkscape:window-y="-8"
     inkscape:window-maximized="1"
     inkscape:current-layer="svg8" />
  <defs
     id="defs2">
    <marker
       style="overflow:visible"
       id="Arrow1Lstart"
       refX="0.0"
       refY="0.0"
       orient="auto">
      <path
         transform="scale(0.8) translate(12.5,0)"
         style="fill-rule:evenodd;stroke:#000000;stroke-width:1.0pt"
         d="M 0.0,0.0 L 5.0,-5.0 L -12.5,0.0 L 5.0,5.0 L 0.0,0.0 z "
         id="path6352" />
    </marker>
  </defs>
  <metadata
     id="metadata5">
    <rdf:RDF>
      <cc:Work
         rdf:about="">
        <dc:format>image/svg+xml</dc:format>
        <dc:type
           rdf:resource="http://purl.org/dc/dcmitype/StillImage" />
        <dc:title></dc:title>
      </cc:Work>
    </rdf:RDF>
  </metadata>
  <rect
     y="9.0673761"
     x="9.0673752"
     height="15.731915"
     width="15.731915"
     id="rect4511"
     style="display:inline;fill:#00c853;fill-opacity:1;stroke:#00c853;stroke-width:18.13480568;stroke-linejoin:round;stroke-miterlimit:0.80000001;stroke-dasharray:none;stroke-dashoffset:0;stroke-opacity:1;paint-order:markers stroke fill"
     inkscape:label="BG" />
  <g
     transform="translate(-43.940178,-178.30301)"
     style="display:none"
     id="layer1"
     inkscape:label="User Only">
    <path
       style="display:inline;fill:none;fill-opacity:1;stroke:#fffff9;stroke-width:6.96200037;stroke-linecap:square;stroke-linejoin:round;stroke-miterlimit:4;stroke-dasharray:none;stroke-opacity:1;paint-order:normal"
       d="M 64.056641,61.25 A 26.985265,31.417937 0 0 0 37.113281,91.287109 L 90.964844,91.050781 A 26.985265,31.417937 0 0 0 64.056641,61.25 Z"
       transform="matrix(0.26458333,0,0,0.26458333,43.940178,178.30301)"
       id="rect3699"
       inkscape:connector-curvature="0" />
    <path
       id="path6189"
       d="m 60.888337,186.56661 a 3.9387156,3.9043771 0 0 0 -3.938717,3.9044 3.9387156,3.9043771 0 0 0 3.938717,3.90436 3.9387156,3.9043771 0 0 0 3.938714,-3.90436 3.9387156,3.9043771 0 0 0 -3.938714,-3.9044 z"
       style="display:inline;fill:none;fill-opacity:1;stroke:#fffff9;stroke-width:1.84202909;stroke-linecap:square;stroke-linejoin:round;stroke-miterlimit:4;stroke-dasharray:none;stroke-opacity:1;paint-order:normal"
       inkscape:connector-curvature="0" />
  </g>
  <g
     inkscape:label="Logo"
     id="g4550"
     style="display:inline"
     transform="translate(-43.940178,-178.30301)">
    <rect
       id="rect4544"
       width="20.168179"
       height="20.168179"
       x="171.61331"
       y="86.078705"
       style="display:inline;fill:none;fill-opacity:1;stroke:#fffff9;stroke-width:2.45600629;stroke-linecap:square;stroke-linejoin:round;stroke-miterlimit:4;stroke-dasharray:none;stroke-opacity:1;paint-order:normal"
       transform="matrix(0.71019697,0.70400303,-0.71019697,0.70400303,0,0)" />
    <path
       inkscape:connector-curvature="0"
       style="display:inline;fill:none;fill-opacity:1;stroke:#fffff9;stroke-width:1.84196949;stroke-linecap:square;stroke-linejoin:round;stroke-miterlimit:4;stroke-dasharray:none;stroke-opacity:1;paint-order:normal"
       d="m 60.888337,186.56661 a 3.9387156,3.9043771 0 0 0 -3.938717,3.9044 3.9387156,3.9043771 0 0 0 3.938717,3.90436 3.9387156,3.9043771 0 0 0 3.938714,-3.90436 3.9387156,3.9043771 0 0 0 -3.938714,-3.9044 z"
       id="path4546" />
    <path
       inkscape:connector-curvature="0"
       style="display:inline;fill:none;fill-opacity:1;stroke:#fffff9;stroke-width:1.84196949;stroke-linecap:square;stroke-linejoin:round;stroke-miterlimit:4;stroke-dasharray:none;stroke-opacity:1;paint-order:normal"
       d="m 53.750183,202.87775 6.996276,6.93516 7.274976,-7.21154 a 7.1398511,8.3126623 0 0 0 -7.133098,-8.09243 7.1398511,8.3126623 0 0 0 -7.139803,8.3127 7.1398511,8.3126623 0 0 0 0.0017,0.0562 z"
       id="path4548" />
  </g>
</svg>
