<?xml version="1.0" encoding="UTF-8" standalone="no"?>
<svg
   xmlns:dc="http://purl.org/dc/elements/1.1/"
   xmlns:cc="http://creativecommons.org/ns#"
   xmlns:rdf="http://www.w3.org/1999/02/22-rdf-syntax-ns#"
   xmlns:svg="http://www.w3.org/2000/svg"
   xmlns="http://www.w3.org/2000/svg"
   style="enable-background:new"
   id="svg8"
   version="1.1"
   viewBox="0 0 33.866666 33.866666"
   height="128"
   width="128">
  <defs
     id="defs2">
    <marker
       style="overflow:visible"
       id="Arrow1Lstart"
       refX="0.0"
       refY="0.0"
       orient="auto">
      <path
         transform="scale(0.8) translate(12.5,0)"
         style="fill-rule:evenodd;stroke:#000000;stroke-width:1.0pt"
         d="M 0.0,0.0 L 5.0,-5.0 L -12.5,0.0 L 5.0,5.0 L 0.0,0.0 z "
         id="path6352" />
    </marker>
  </defs>
  <metadata
     id="metadata5">
    <rdf:RDF>
      <cc:Work
         rdf:about="">
        <dc:format>image/svg+xml</dc:format>
        <dc:type
           rdf:resource="http://purl.org/dc/dcmitype/StillImage" />
        <dc:title></dc:title>
      </cc:Work>
    </rdf:RDF>
  </metadata>
  <rect
     y="9.0673761"
     x="9.0673752"
     height="15.731915"
     width="15.731915"
     id="rect4511"
     style="display:none;fill:#00c853;fill-opacity:1;stroke:#00c853;stroke-width:18.13480568;stroke-linejoin:round;stroke-miterlimit:0.80000001;stroke-dasharray:none;stroke-dashoffset:0;stroke-opacity:1;paint-order:markers stroke fill" />
  <g
     transform="translate(-43.940178,-178.30301)"
     style="display:inline"
     id="layer1">
    <rect
       transform="matrix(0.71019697,0.70400303,-0.71019697,0.70400303,0,0)"
       style="display:inline;fill:none;fill-opacity:1;stroke:#fffff9;stroke-width:2.45600629;stroke-linecap:square;stroke-linejoin:round;stroke-miterlimit:4;stroke-dasharray:none;stroke-opacity:1;paint-order:normal"
       y="86.078705"
       x="171.61331"
       height="20.168179"
       width="20.168179"
       id="rect3699" />
    <path
       id="path6189"
       d="m 60.888337,186.56661 a 3.9387156,3.9043771 0 0 0 -3.938717,3.9044 3.9387156,3.9043771 0 0 0 3.938717,3.90436 3.9387156,3.9043771 0 0 0 3.938714,-3.90436 3.9387156,3.9043771 0 0 0 -3.938714,-3.9044 z"
       style="display:inline;fill:none;fill-opacity:1;stroke:#fffff9;stroke-width:1.84196949;stroke-linecap:square;stroke-linejoin:round;stroke-miterlimit:4;stroke-dasharray:none;stroke-opacity:1;paint-order:normal" />
    <path
       id="path5971"
       d="m 53.750183,202.87775 6.996276,6.93516 7.274976,-7.21154 a 7.1398511,8.3126623 0 0 0 -7.133098,-8.09243 7.1398511,8.3126623 0 0 0 -7.139803,8.3127 7.1398511,8.3126623 0 0 0 0.0017,0.0562 z"
       style="display:inline;fill:none;fill-opacity:1;stroke:#fffff9;stroke-width:1.84196949;stroke-linecap:square;stroke-linejoin:round;stroke-miterlimit:4;stroke-dasharray:none;stroke-opacity:1;paint-order:normal" />
  </g>
</svg>
